<svg width="1438" height="699" viewBox="0 0 1438 699" fill="none" xmlns="http://www.w3.org/2000/svg">
<path d="M-23.9804 223.175L-23.9804 420.994C-18.98 418.133 -16.9486 415.719 -8.04166 415.719C-8.29556 418.705 -10.4441 420.491 -14.4679 421.064C-12.5341 423.059 -10.581 425.055 -8.64712 427.064C-18.14 427.064 -17.6908 427.036 -21.5192 433.134C-28.5511 444.298 -13.8429 442.805 -12.3194 447.326C-10.6005 452.405 -16.2844 459.103 -15.3665 464.308C-10.5614 465.815 -8.66665 468.188 -9.68227 471.411L-9.68227 482.282C-7.9634 478.109 -6.22512 473.951 -4.50625 469.779C6.99863 474.774 9.96775 464.741 11.4522 477.398C28.4653 477.286 23.2695 464.378 36.9815 477.202C42.1188 482.003 32.5866 488.087 43.9158 492.371C55.108 496.599 74.7579 482.505 89.5052 482.505C83.4305 486.831 81.2038 492.538 83.6454 499.083C83.1766 497.813 92.4156 508.725 91.2241 507.888C89.2709 511.628 90.6186 513.023 95.2479 512.061L103.276 512.061C111.636 513.582 105.678 505.39 111.675 505.879C111.675 516.791 118.043 510.107 127.907 508.865C127.907 511.098 108.687 533.857 122.418 532.56C127.653 532.071 146.58 510.637 139.919 528.778C137.517 535.337 134.099 530.718 132.848 538.881C132.243 542.732 132.77 546.5 134.372 550.198C136.872 555.208 139.861 556.017 143.299 552.626C146.346 550.254 150.233 549.096 154.979 549.151C156.972 551.733 159.198 554.203 161.699 556.547C170.684 560.064 167.343 564.18 177.344 558.947C177.344 568.813 176.622 577.716 187.638 583.005C187.794 579.782 189.709 578.526 193.342 579.209C194.24 587.666 194.416 585.754 204.573 586.075C202.854 587.749 191.525 598.173 201.487 597.49C210.433 596.89 206.331 588.894 217.445 589.424C214.73 593.708 211.995 597.992 209.28 602.276C226.43 602.276 230.981 591.922 238.208 583.382C245.748 574.451 252.389 568.757 269.793 568.757C252.741 562.38 271.746 555.905 275.34 550.058C277.235 546.975 264.832 548.719 268.973 542.677C267.645 544.616 287.197 543.57 286.259 543.765C283.251 545.998 284.814 546.961 290.908 546.668C282.45 558.18 287.88 564.529 294.111 572.707C296.084 575.288 297.432 580.242 299.444 582.279C302.061 582.447 304.679 582.628 307.277 582.796C308.488 584.903 309.718 587.024 310.929 589.131C313.976 590.568 320.832 592.354 324.856 594.252C322.59 593.178 335.736 603.588 336.302 601.774C336.185 605.653 324.68 616.328 332.982 617.724C337.65 609.811 345.405 596.108 353.55 596.108C352.671 598.48 353.55 606.588 352.593 607.956C354.39 612.393 352.475 613.998 346.889 612.756C341.205 611.514 339.467 613.105 341.693 617.514C361.207 614.207 345.346 619.049 360.074 619.049C360.718 611.793 361.441 611.793 370.817 612.016C378.864 612.212 383.044 632.878 386.56 616.9C391.248 623.961 404.179 614.751 404.745 620.082C401.21 621.352 397.674 622.622 394.139 623.878C400.663 632.236 394.471 632.599 397.889 637.986C399.764 640.944 404.12 641.516 406.992 644.307C413.105 650.251 420.958 656.824 429.239 662.741C431.095 657.899 435.041 656.336 441.096 658.066C437.58 661.513 434.064 664.973 430.529 668.42C444.67 665.978 445.862 666.508 457.484 672.816C448.714 676.863 451.273 676.988 455.882 683.882C461.391 679.905 475.474 669.788 481.705 676.486C482.584 677.435 462.367 682.179 486.158 683.156C480.611 684.258 476.646 686.645 474.243 690.329C481.724 695.269 486.842 694.766 489.596 688.78C491.842 686.575 494.655 685.891 498.054 686.728C498.268 689.226 490.944 693.943 488.17 698.199L496.667 698.199C501.569 692.171 509.383 687.147 515.262 693.678C510.867 694.948 509.656 696.552 509.812 698.199L656.367 698.199C657.285 696.483 658.594 693.915 659.062 693.385C666.426 685.207 672.794 674.141 678.849 663.815C683.049 656.671 686.74 649.233 690.784 641.753C693.304 637.065 700.609 630.338 702.23 627.059C706.566 618.379 704.437 612.826 716.216 619.51C729.049 626.78 721.704 630.394 719.165 637.274C730.67 638.711 753.758 646.54 743.698 654.075C754.597 654.647 764.462 659.154 768.427 666.076C750.046 666.076 780.732 678.844 783.74 681.691C794.19 675.83 811.594 679.319 809.719 691.696C820.833 688.361 816.79 682.319 826.166 684.593C826.166 683.449 834.877 669.271 833.823 669.453C843.14 667.764 842.612 677.281 844.214 681.9C849.605 677.77 852.965 673.193 861.305 671.685L851.09 670.625C858.395 657.145 862.887 649.972 881.541 641.879C891.054 657.047 890.858 652.931 905.977 649.819C908.555 649.037 909.356 647.586 908.379 645.479C912.598 642.744 917.247 642.297 922.306 644.139C929.729 641.614 931.623 643.791 939.749 637.651C949.828 650.14 968.97 620.989 970.044 612.184C982.135 623.18 988.933 620.152 1006.39 621.966C1011.57 622.51 1008.6 614.779 1013.66 623.543C1018.06 631.148 1011.47 634.05 1021.61 640.079C1028.68 632.278 1034.46 635.348 1044.62 631.176C1050.54 628.734 1052.65 616.314 1059.09 626.236C1063.68 622.691 1065.21 614.472 1062.53 609.56C1077.73 608.374 1068.31 592.047 1077.16 586.549C1095 575.483 1084.35 585.74 1101.29 588.056C1104.41 588.475 1121.03 586.061 1125.37 586.159C1118.51 592.564 1106.54 588.042 1112.61 598.327C1118.94 609.044 1133.16 605.109 1133.16 617.975C1140.55 613.705 1143.67 614.151 1142.6 619.3C1141.46 623.529 1144.49 625.412 1151.66 624.924C1155.18 627.659 1154.04 628.762 1160.53 631.329C1172.68 636.143 1183.09 639.702 1196.98 639.702C1192.35 653.531 1221.12 646.233 1226.08 638.655C1235.24 643.679 1245.65 632.78 1245.65 627.645C1254.72 629.138 1272.26 629.78 1268.99 619.147C1262.63 620.556 1260.46 619.049 1262.41 614.654C1263.92 615.561 1279.03 618.533 1276.05 617.751C1277.08 615.002 1280.13 614.5 1285.19 616.244L1285.19 620.445C1281.77 619.021 1280.93 622.608 1281.22 623.947C1297.82 622.077 1309.66 630.45 1319.21 621.91C1311.03 619.984 1304.99 619.9 1296.5 621.142C1301.11 608.807 1302.98 609.937 1311.07 618.282C1319.74 612.63 1307.3 608.137 1309.8 600.518C1312.44 592.494 1317.03 591.81 1326.52 596.22C1327.75 594.043 1344.61 586.912 1349 585.977C1346.75 581.205 1348.94 579.586 1355.56 581.149C1354.41 585.377 1356.7 588.503 1362.46 590.526C1370.21 598.076 1377.11 600.895 1386.44 596.583C1388.12 595.815 1404.28 589.508 1390.96 589.117C1390.66 593.457 1386.89 593.917 1386.19 589.354C1392.03 589.033 1393.16 579.977 1395.18 575.818C1397.77 570.474 1402.83 562.855 1404.9 557.412C1405.49 555.891 1411.6 553.98 1412.31 552.766C1407.29 548.942 1408.67 546.472 1416.47 545.37C1414.12 540.109 1416.49 537.848 1423.56 538.616C1423.89 534.262 1419.44 536.732 1419.44 530.662C1424.05 530.536 1428.64 530.662 1433.23 531.038C1432.27 540.876 1418.15 544.407 1424.42 553.477C1408.38 555.808 1428.38 567.683 1410.45 567.683C1412.13 573.418 1408.83 580.172 1400 581.372C1403.26 592.536 1430.49 557.147 1441 543.709L1441 295.111C1438.85 296.031 1437 296.813 1435.75 297.399C1435.75 293.492 1438.58 290.045 1441 286.696L1441 271.29C1437.97 267.62 1434.5 264.634 1438.01 259.08C1424.3 255.438 1426.78 249.926 1434.01 242.028C1424.79 240.967 1419.03 224.068 1421.17 216.603C1414.45 216.603 1413.52 244.191 1405.94 231.115C1390.12 236.627 1395.47 222.226 1394.59 215.612C1372.38 231.548 1386.85 195.197 1387.46 187.703C1388.89 169.953 1367.05 160.073 1366.64 144.151C1357.11 146.803 1371.33 153.389 1352.5 152.482C1358.83 143.412 1349.96 142.812 1342.95 137.244C1342.79 137.132 1326.19 125.117 1327.83 125.034C1314.02 125.801 1330.95 130.755 1328 133.406C1319.86 140.76 1313.69 139.03 1302.04 137.565C1302.04 145.24 1303.51 147.026 1296.5 153.068C1310.19 160.269 1301.83 158.901 1293.2 163.701C1290.5 165.195 1290.68 170.19 1286.59 169.59C1264.07 166.269 1298.41 137.537 1271.73 137.537C1277.65 136.016 1279.97 133.337 1278.74 129.527C1282.92 129.039 1290.69 134.592 1289.84 127.95C1274.64 127.95 1280.52 116.619 1271.44 116.173C1271.44 127.434 1265.79 118.601 1264.7 127.127C1264.13 131.662 1265.93 137.411 1266.69 141.933C1267.63 147.486 1270.83 154.198 1269.13 159.738C1267.84 163.925 1264.09 166.143 1261.75 170.804C1260.5 173.288 1258.76 177.126 1257.27 179.693C1252.2 188.401 1251.57 192.127 1254.85 202.83C1251.26 203.039 1247.68 203.234 1244.09 203.444C1257 213.323 1236.96 220.357 1241.04 229.985C1229.4 227.711 1216.74 230.683 1213.21 219.84C1211.43 214.398 1223.11 204.881 1225.12 199.997C1229.99 188.219 1234.46 183.81 1239.34 171.586C1240.65 168.32 1243.86 163.478 1245.73 160.199C1244.21 162.878 1241.3 155.092 1241.43 154.017C1252.16 157.492 1251.45 153.85 1252.61 147.026C1251.32 154.645 1242.62 135.179 1243.29 132.681C1233.99 134.676 1227.15 135.151 1219.85 130.783C1219.85 139.1 1211.24 141.626 1202.56 146.942C1195.84 137.844 1182.99 125.034 1166.29 123.959C1168.38 121.936 1168.87 119.745 1167.72 117.359C1155.74 126.848 1147.89 121.238 1137.15 116.312C1141.02 115.154 1143.57 113.158 1144.82 110.326C1139.94 109.935 1138.3 108.121 1139.84 104.869C1129.39 102.12 1125.49 104.13 1128.12 110.884C1127.65 115.768 1124.16 117.931 1117.67 117.373C1112.13 117.121 1108.1 118.81 1105.56 122.452C1105.56 116.884 1110.88 109.74 1109.35 106.125C1109.78 107.144 1078.63 100.181 1105.11 99.2318C1104.72 95.1572 1099.23 91.9198 1094.84 91.3895C1088.02 90.5661 1088.59 95.8689 1088.24 95.8689C1075.37 95.6037 1065.44 92.157 1078.26 83.2959L1067.42 82.1935C1067.96 79.3747 1076.03 78.2025 1074.92 77.4071C1066.22 71.0439 1065.19 73.7231 1055.97 77.2118C1056.07 77.1838 1047.26 88.9893 1046.28 89.4498C1039.46 92.7152 1036.22 88.7242 1030.03 92.0453C1030.71 97.976 1040.93 90.5522 1039.31 96.734C1037.16 104.911 1028.17 96.7899 1025.17 93.6361C1020.95 98.3667 1017.26 105.009 1014.46 108.693C1015.42 107.437 1018.84 122.55 1009.27 113.131C1005.95 109.865 1010.52 105.47 1008.95 103.711C1005.67 100.027 1002.33 101.339 999.832 98.9947C992.859 92.4361 989.05 85.8635 984.772 77.3373C979.752 86.003 964.126 100.083 951.254 89.9243C945.902 85.6961 948.949 68.6437 950.746 62.7829L935.706 62.7829C934.534 58.9872 931.799 57.3406 927.482 57.8709C924.396 71.4346 910.899 49.3168 926.974 49.3168C926.545 44.9909 924.591 41.0418 921.095 37.4974C915.04 41.9628 914.942 43.6094 912.13 47.4469C907.657 53.531 918.048 52.0937 907.539 55.7777C891.444 61.4293 890.839 48.3958 881.404 43.3861C879.295 47.1957 873.357 48.2005 872.947 52.7357C895.605 52.7357 880.838 65.0993 900.351 66.5506C898.496 69.0624 896.62 71.5881 894.765 74.1C907.891 75.4814 897.206 79.8352 887.713 75.9419C867.614 67.6948 892.87 64.6528 880.408 57.243C876.228 59.8524 872.204 62.5735 868.317 65.4063C870.31 69.8857 868.552 73.3324 863.083 75.7326C851.383 80.505 853.707 73.3185 846.616 71.8812C838.51 70.2345 825.169 68.1414 820.364 74.1697C815.208 67.3879 816.048 40.1906 802.336 44.1537C808.098 32.6691 791.671 43.442 783.487 34.232C786.573 37.7067 783.701 20.3334 783.701 21.4498C773.036 22.2731 762.84 25.9152 753.582 25.9152C753.582 32.2924 748.464 35.795 745.378 27.2688C743.757 32.711 739.049 49.4424 727.447 49.3308C714.262 49.2052 729.009 40.5255 727.642 37.316C720.767 21.1567 693.362 25.9571 680.959 35.9485C693.46 38.3068 697.327 29.3899 694.944 42.5489C694.417 45.4933 688.205 50.9216 686.408 54.4381C684.475 58.2058 683.693 62.5735 682.404 66.4808C676.72 66.2436 671.974 64.7086 668.204 61.9037C665.391 57.9407 661.582 57.6058 656.777 60.899C655.8 60.7455 646.835 66.2576 643.495 63.983C640.077 61.6666 649.237 55.694 648.046 51.5635C647.226 48.7447 638.455 37.1625 634.119 37.7905L634.119 48.0191C606.832 46.1353 605.621 48.4656 605.093 66.4808C596.87 58.8896 589.858 48.2563 591.733 38.2649C597.944 37.4416 600.347 35.1252 598.901 31.3156C600.464 28.9154 599.898 27.52 597.183 27.1432C596.538 24.3663 586.381 28.3015 585.326 28.6084C588.783 29.027 592.26 29.4317 595.718 29.8503C586.264 38.1254 589.487 47.0841 573.724 53.4334C573.372 49.8332 573.04 46.2189 572.688 42.6187C567.864 47.6144 572.571 67.332 563.293 70.5555C554.699 73.5418 552.999 61.3316 559.758 57.9547C555.05 53.2241 544.854 45.9259 550.187 39.2557C551.28 37.8881 556.613 40.9302 557.804 37.944C560.305 31.6644 565.559 36.2415 557.804 27.7014C553.781 23.2778 550.909 18.2682 542.979 21.5754C539.658 23.6685 539.444 26.7106 542.354 30.6876C540.401 30.8411 538.447 30.9946 536.475 31.1481C528.114 34.9298 534.521 36.5485 527.646 26.7246C525.263 23.3197 527.236 15.2819 523.602 12.6027C520.126 10.035 513.953 14.2911 511.355 15.0028C514.754 19.1892 507.214 37.6509 495.124 34.7902C487.643 33.018 491.588 15.254 492.78 12.0026C492.936 11.5701 494.948 4.1742 494.948 5.19288C494.948 4.55097 495.866 2.66712 496.374 0.448372L477.075 0.448374C477.075 2.081 477.153 3.64393 477.153 4.91377C477.212 14.4028 474.067 20.9754 471.098 27.6177C468.403 33.66 471.645 39.8976 472.153 47.9354C473.325 66.4948 460.746 85.6682 460.746 104.269C445.784 106.251 454.359 88.7521 452.913 82.668C438.635 83.1145 450.1 96.2596 441.154 98.5761C443.889 100.837 444.807 103.307 443.928 105.986C425.977 106.586 439.514 96.1201 432.736 93.7897C418.36 88.8358 429.669 103.167 427.032 107.786C424.044 106.056 421.055 104.339 418.067 102.609C407.031 107.535 414.57 116.856 404.608 108.874C399.999 105.177 401.327 88.0544 400.526 82.975C404.355 82.2633 407.109 83.7146 408.808 87.3009L408.808 72.7464C391.99 81.2586 407.089 71.4905 397.186 69.1322C393.768 72.6068 390.35 76.0815 386.951 79.5562C385.701 74.8256 384.47 70.095 383.22 65.3505C371.618 73.6255 368.844 99.3855 364.527 111.693C362.593 117.177 363.199 133.071 354.761 136.365C344.213 140.481 347.807 133.155 341.4 131.425C341.947 131.564 341.049 143.998 332.708 134.579C328.313 129.611 332.943 129.443 331.517 124.517C329.017 115.977 330.462 101.423 313.332 108.372C305.499 111.54 305.05 120.164 299.717 124.713C291.221 131.983 277.391 133.546 274.11 142.728C272 140.97 269.891 139.211 267.781 137.453C278.114 133.769 269.188 129.96 274.383 123.052C251.647 122.299 271.766 118.238 268.465 111.54C270.594 115.838 249.166 102.874 254.382 104.744C255.573 101.981 254.147 100.153 250.084 99.2459C247.233 102.944 242.916 104.116 237.134 102.762C226.43 103.321 229.419 97.7946 219.281 106.572C213.402 102.735 216.625 71.1416 201.174 77.4072C203.889 78.5235 209.124 95.8968 207.62 98.8831C201.311 111.498 179.942 106.586 174.239 97.1806C157.636 103.055 171.895 99.2459 167.422 107.995C166.621 109.572 155.077 105.525 158.827 111.149C156.874 108.219 172.129 114.052 171.602 114.024C176.778 114.331 178.008 109.628 182.794 109.377C187.013 112.796 181.915 115.084 179.161 117.484C188.107 118.21 193.791 112.517 202.112 110.507C198.791 115.349 193.322 117.177 191.017 119.619C187.169 123.68 183.849 129.29 178.262 131.816C176.758 127.908 173.692 125.062 172.637 121.182C168.672 122.159 164.707 123.136 160.741 124.113C164.765 125.718 174.825 134.104 171.719 138.053C149.881 132.667 170.938 140.886 163.164 144.207C157.636 146.565 151.639 149.789 144.803 149.58C144.803 140.593 150.956 148.393 147.537 138.221C155.389 138.96 157.226 136.434 153.065 130.671C132.224 138.067 148.768 121.154 149.725 116.326C151.327 108.246 148.924 106.656 137.868 106.363C127.067 106.07 122.008 116.717 115.523 116.354C102.573 115.628 111.538 103.376 116.5 100.209C98.92 96.1062 103.022 103.237 100.248 110.716C93.9977 110.549 92.6109 112.475 96.0877 116.466C99.584 120.289 98.4903 122.299 92.8062 122.494C86.3214 122.941 84.8954 125.801 88.5872 131.062C88.6653 135.737 87.4152 140.23 84.837 144.514C82.493 151.98 82.9617 160.129 73.2149 163.074C69.0153 159.878 75.1485 158.343 74.1133 155.12C59.4637 148.045 62.7062 148.352 67.4527 135.193C71.1248 125.006 79.9146 104.758 56.5143 104.758C68.2536 108.847 62.1202 112.517 54.0336 114.359C52.0999 114.805 50.5178 115.126 49.2481 115.335C52.471 119.326 47.0995 124.727 40.2827 126.792C44.7165 131.816 41.8257 136.044 40.3998 141.849C27.8597 136.783 37.0988 127.936 37.1183 123.164C39.4232 120.875 40.8489 118.35 41.4155 115.573C37.3526 113.172 34.2078 110.27 31.9421 106.865C37.4893 104.465 35.9462 108.847 39.9505 109.14C44.6774 102.553 44.2673 100.153 44.1891 93.8735C44.111 88.194 37.1182 86.4916 42.1577 80.0725C37.5479 79.2073 32.9188 78.3561 28.309 77.4909L24.6563 89.4917C32.3718 87.3707 36.5713 89.0033 37.3135 94.4177C16.7065 94.4177 17.7222 100.516 14.89 113.717C13.0148 122.424 10.7488 138.863 0.513736 143.272C-3.86163 133.825 7.3111 120.764 1.00201 110.954C-7.78778 112.293 -2.76776 117.945 -6.8111 119.633C-9.99493 120.959 -18.101 120.68 -22.2223 123.555C-23.2186 124.252 -22.3983 129.499 -23.9999 132.485L-23.9999 204.644C-23.6679 203.039 -23.3359 201.783 -23.0624 201.099C-20.3473 194.359 -14.1359 191.638 -5.32659 191.638C-5.50237 193.229 -5.65862 194.82 -5.8344 196.397C-13.1983 196.397 -16.4993 216.854 -23.9999 223.106L-23.9804 223.175ZM1388.14 571.185C1384.73 566.329 1381.84 568.841 1381.84 562.729C1387.5 562.729 1396.27 569.218 1388.14 571.185ZM1388.91 559.24L1388.91 554.273C1398.18 554.273 1397.54 558.71 1388.91 559.24ZM1397.5 537.332C1393.11 537.416 1390.76 535.867 1390.45 532.699C1397.48 530.662 1399.82 532.197 1397.5 537.332ZM1386.58 467.127C1392.01 467.643 1394.14 469.862 1392.97 473.755C1385.6 475.277 1383.48 473.058 1386.58 467.127ZM1396.6 500.953C1384.35 490.878 1401.58 486.231 1400.74 504.441C1400.61 507.386 1397.42 513.4 1396.33 516.847C1395.37 519.875 1397.34 524.243 1397.77 527.229C1384.63 527.229 1384.82 527.564 1381.7 518.466C1385.57 510.009 1387.17 506.507 1396.62 500.967L1396.6 500.953ZM1378.01 532.378C1380.68 532.434 1381.29 532.839 1380.98 533.229C1385.35 534.932 1392.44 538.658 1393.18 539.579C1395.12 543.653 1393.13 545.174 1387.19 544.156C1385.72 538.058 1381.84 538.309 1375.51 544.895C1373.49 540.416 1374.31 536.244 1377.99 532.378L1378.01 532.378ZM1241.53 622.663C1237.59 625.273 1232.33 625.175 1231.26 621.435L1243.07 621.435C1242.49 621.994 1241.98 622.384 1241.51 622.663L1241.53 622.663ZM1276.06 589.396C1274.42 589.243 1272.78 589.103 1271.14 588.949C1272.18 585.768 1273.21 582.586 1274.25 579.405C1277.65 580.619 1276.06 587.205 1276.06 589.396ZM1294.43 600.629C1282.14 603.546 1291.53 594.489 1294.43 592.717L1294.43 600.629ZM1292.67 577.27C1291.36 573.837 1293.59 572.902 1299.31 574.479C1300.62 577.912 1298.39 578.846 1292.67 577.27ZM1336.75 574.2C1336.75 582.614 1333.04 575.818 1332.03 585.503C1321.58 588.363 1327.36 574.2 1336.75 574.2ZM1327.22 171.307L1327.22 176.274C1317.94 176.274 1318.59 171.837 1327.22 171.307ZM1318.02 568.911C1318.02 579.112 1315.33 572.553 1314.17 578.651C1313.43 582.628 1319.66 584.903 1320.91 588.489C1315.52 589.41 1310.15 590.331 1304.78 591.266C1302.12 587.401 1303.68 585.321 1309.47 585.07C1305.99 582.209 1306.4 572.567 1304.45 571.506C1298.35 568.143 1289.97 570.362 1283.49 571.241C1283.49 565.729 1286.57 559.129 1295.4 559.534C1312.22 560.315 1298.51 568.925 1318.02 568.925L1318.02 568.911ZM1295.44 554.356L1295.44 550.812C1300.97 550.812 1300.97 553.561 1295.44 554.356ZM1294.64 538.853C1297.67 543.821 1296.28 546.207 1290.52 546.012C1287.16 540.974 1288.53 538.588 1294.64 538.853ZM1286.67 180.726C1284.19 179.33 1281.71 177.935 1279.21 176.54C1286.51 176.54 1288.51 174.837 1286.67 180.726ZM1282.39 253.805C1282.71 256.666 1284.87 260.824 1280.81 262.052C1272.16 259.164 1272.69 256.415 1282.39 253.805ZM1271.79 227.529C1276.24 228.883 1278.49 231.255 1278.49 234.632C1270.56 236.627 1268.33 234.255 1271.79 227.529ZM1264.95 251.615C1267.06 251.615 1267.06 256.624 1264.95 256.624L1264.95 251.615ZM1260.73 268.109C1264.4 272.03 1263.49 273.844 1257.94 273.551C1255.52 269.602 1256.45 267.788 1260.73 268.109ZM1255.18 295.055C1253.82 292.417 1254.97 291.273 1258.64 291.608C1260.83 294.162 1259.68 295.306 1255.18 295.055ZM1257.14 281.979C1258.45 285.412 1256.22 286.347 1250.5 284.77C1249.19 281.338 1251.41 280.403 1257.14 281.979ZM1246.06 296.673C1251.08 297.427 1254.38 299.576 1255.99 303.092C1246.18 305.869 1242.86 303.734 1246.06 296.673ZM1241.34 306.902C1248.31 306.511 1243.82 309.288 1246.36 311.647C1240.81 312.833 1239.13 311.256 1241.34 306.902ZM1278.41 542.453C1278.51 538.044 1282.45 537.792 1283.14 542.258C1278.25 542.523 1274.56 550.31 1278.41 552.487C1280.05 553.408 1285.75 547.812 1290.44 547.812C1283.08 557.817 1276.96 568.115 1269.52 577.884C1266.86 581.372 1247.82 596.15 1248.15 598.941C1251.28 598.941 1265.77 591.768 1261.86 599.722C1258.64 606.281 1246.59 609.128 1238.78 609.128C1238.78 604.481 1243.41 604.858 1248.72 603.602C1246.51 600.713 1243.03 599.834 1238.33 600.964C1238.87 596.108 1244.73 593.68 1235.3 590.582C1247.45 588.098 1263.94 540.904 1278.41 542.467L1278.41 542.453ZM1236.35 323.215L1229.4 323.215C1229.4 316.6 1235.63 317.047 1236.35 323.215ZM1112.83 576.53C1111.85 576.851 1110.13 576.991 1107.48 576.656C1114.08 572.358 1123.61 570.753 1128.89 565.325C1136.62 570.837 1122.26 575.483 1112.83 576.53ZM1138.05 562.492C1136.68 559.854 1137.83 558.71 1141.5 559.045C1143.69 561.599 1142.54 562.743 1138.05 562.492ZM1154.38 573.921C1147.81 575.47 1145.62 573.907 1147.83 569.204C1153.83 567.795 1156 569.371 1154.38 573.921ZM1166.25 577.242C1160.61 579.181 1158.05 578.219 1158.58 574.353C1164.1 572.748 1166.66 573.711 1166.25 577.242ZM1174.38 572.4C1171.15 569.944 1169.34 568.562 1167.09 566.846C1172.47 566.12 1174.9 567.971 1174.38 572.4ZM1201.8 631.301L1195.12 624.743C1202.04 625.915 1207.66 624.352 1212.04 620.082C1213.44 626.375 1203.56 626.096 1201.8 631.301ZM1222.17 521.159C1222.17 525.527 1216 525.192 1214.85 521.159L1222.17 521.159ZM1208.7 520.321L1208.7 511.405C1218.89 514.042 1218.89 517.014 1208.7 520.321ZM1205.81 503.855C1205.53 500.422 1208.29 499.543 1213.87 498.134C1212.11 502.32 1210.86 504.316 1205.81 503.855ZM1200.79 489.398C1206.35 487.668 1208.89 488.338 1208.38 491.394C1202.91 494.003 1200.38 493.334 1200.79 489.398ZM1205.69 483.677C1205.73 482.547 1206.04 482.198 1206.33 482.212C1207.25 480.216 1208.34 478.263 1209.65 476.379C1216.86 478.947 1212.29 483.677 1205.69 483.677ZM1210.96 282.035C1210.57 288.133 1206.33 290.171 1198.25 288.119C1199.85 283.696 1203.54 271.946 1210.96 282.035ZM1197 153.012C1202.99 151.603 1205.16 153.18 1203.54 157.729C1196.98 159.278 1194.79 157.715 1197 153.012ZM1197 293.562C1198.66 295.013 1200.32 296.464 1201.98 297.901C1196.35 299.925 1194.69 298.474 1197 293.562ZM1200.34 488.45C1196.33 488.673 1190.49 490.222 1188.77 487.333C1192.84 481.165 1196.68 481.528 1200.34 488.45ZM1179.67 142.226C1185.16 139.602 1187.7 140.258 1187.31 144.221C1181.76 145.951 1179.22 145.282 1179.67 142.226ZM1182.13 474.202C1183.44 478.193 1180.45 479.114 1173.17 476.979C1171.86 472.988 1174.85 472.067 1182.13 474.202ZM1167.5 314.842C1167.35 314.94 1167.15 315.038 1166.92 315.163C1163.63 315.038 1160.33 314.912 1157.05 314.786C1165.39 307.572 1175.74 310.237 1167.5 314.842ZM1165.35 326.829C1159.02 328.211 1157.09 326.466 1159.55 321.582C1163.52 321.791 1165.49 323.061 1165.53 325.364C1165.7 325.448 1165.72 325.838 1165.35 326.829ZM1158.3 333.304L1158.3 338.523C1152.17 338.523 1152.66 334.113 1158.3 333.304ZM1146.25 123.75C1145.55 127.532 1147.64 130.071 1152.54 131.327C1147.6 135.081 1142.6 130.281 1138.87 127.755C1141.33 126.415 1143.79 125.089 1146.25 123.75ZM1139.84 506.507C1143.42 503.158 1143.32 499.613 1139.57 495.873C1157.54 495.873 1148.87 506.855 1141.95 506.883C1142.05 507.135 1141.58 507.204 1139.84 506.507ZM1126.64 512.116C1123.92 507.093 1129.37 502.683 1135.74 501.148C1136.33 500.883 1137.62 500.632 1140.02 500.576C1137.87 502.557 1128.85 516.219 1126.64 512.13L1126.64 512.116ZM1143.12 485.826L1143.12 480.607C1149.26 480.607 1148.77 485.003 1143.12 485.826ZM1138.22 357.054C1147.5 357.054 1146.86 361.492 1138.22 362.022L1138.22 357.054ZM1133.75 365.274C1139.28 365.274 1139.28 368.023 1133.75 368.818L1133.75 365.274ZM1125.97 377.26C1132.54 375.711 1134.73 377.274 1132.52 381.991C1126.52 383.4 1124.35 381.824 1125.97 377.26ZM1110.11 410.528C1111.56 410.402 1112.13 410.5 1112.22 410.653C1115.25 411.058 1116.95 412.551 1117.26 415.147C1110.19 417.17 1107.81 415.621 1110.11 410.528ZM1105.21 544.826C1109.16 541.672 1112.99 541.463 1116.68 544.198C1120.43 543.291 1122.01 541.058 1121.37 537.499C1130.31 530.885 1125.56 528.373 1140.86 531.206C1138.77 529.127 1136.7 527.048 1134.61 524.968C1138.16 524.089 1145.64 515.284 1148.11 511.446C1156.39 509.032 1158.36 505.614 1154.08 501.218C1155.94 498.65 1157.79 496.083 1159.67 493.515C1175.69 472.248 1166.35 501.12 1177.42 502.432C1178.87 485.798 1191.37 508.014 1193.58 511.265C1196.53 508.879 1199.48 506.507 1202.43 504.12C1203.5 510.386 1201.18 519.68 1194.38 523.14C1216.24 526.601 1190.92 544.365 1177.25 546.319C1179.46 549.375 1181.64 552.417 1183.85 555.473C1180.49 555.64 1177.13 555.822 1173.77 555.989C1172.64 558.403 1173.81 559.631 1177.31 559.701C1177.48 559.464 1163.6 563.315 1166.06 563.217C1163.15 563.343 1161.93 569.957 1156.91 562.157C1149.8 551.133 1168.6 555.124 1174.67 549.263C1166.33 549.11 1152.15 549.668 1147.5 549.347C1145.43 549.207 1140.29 550.924 1137.87 550.351C1137.87 542.802 1121.17 547.714 1130.62 553.463C1129.39 554.329 1127.93 552.863 1128.71 552.305C1127.65 552.389 1127.6 552.417 1127.83 552.417C1118.79 553.519 1118.88 559.268 1108.63 558.975C1096.54 558.626 1099.78 551.077 1105.25 544.839L1105.21 544.826ZM1092.87 132.737C1095.58 136.769 1094.23 138.583 1088.82 138.207C1086.58 134.258 1087.92 132.444 1092.87 132.737ZM1075.95 101.646C1076.67 104.409 1076.62 108.567 1071.87 105.218C1073.24 104.032 1074.58 102.832 1075.95 101.646ZM1051.54 497.45C1058.51 497.059 1054.02 499.836 1056.56 502.181C1051.01 503.381 1049.33 501.79 1051.54 497.45ZM1031.9 103.362C1030.85 106.028 1027.22 112.893 1023.21 112.893C1023.21 109.949 1022.02 99.9157 1031.9 103.362ZM1002.14 573.935C1002.14 567.306 1008.39 567.725 1009.07 573.935L1002.14 573.935ZM1013.27 560.915C1007.78 560.413 1005.63 558.208 1006.82 554.287C1014.21 552.752 1016.38 554.956 1013.27 560.915ZM1011.12 132.862C1011.24 136.03 1009.07 137.969 1004.62 138.695C1002.06 133.602 1004.23 131.662 1011.12 132.862ZM1004.07 121.517C1004.07 128.145 997.82 127.727 997.136 121.517L1004.07 121.517ZM969.165 208.3C972.857 207.323 974.478 208.146 974.01 210.756C970.435 212.319 968.814 211.495 969.165 208.3ZM945.277 94.906C954.047 90.2313 954.672 102.372 954.672 103.948L943.734 106.349C944.593 103.544 943.538 95.827 945.277 94.906ZM938.987 68.867C932.854 79.891 932.619 79.4584 928.947 66.7878C933.186 65.4482 936.526 66.1319 938.987 68.867ZM919.747 629.11C922.775 634.078 921.388 636.464 915.626 636.269C912.266 631.232 913.634 628.845 919.747 629.11ZM893.769 112.796C895.956 117.484 893.749 119.033 887.147 117.456C885.174 113.186 887.381 111.623 893.769 112.796ZM869.529 126.555C867.126 127.839 864.723 129.122 862.301 130.392C859.078 125.885 861.5 124.601 869.529 126.555ZM856.285 109.447C858.453 114.135 856.266 115.684 849.664 114.107C847.691 109.837 849.898 108.274 856.285 109.447ZM751.14 103.139C757.703 101.59 759.891 103.153 757.684 107.856C751.687 109.265 749.519 107.688 751.14 103.139ZM688.616 103.055C686.194 99.1063 687.131 97.2922 691.409 97.6132C695.081 101.534 694.163 103.349 688.616 103.055ZM697.933 124.769C694.847 118.908 696.858 116.703 704.007 118.154C705.453 121.95 703.421 124.155 697.933 124.769ZM703.793 77.6164C702.132 76.1652 700.472 74.714 698.812 73.2767C704.437 71.2532 706.097 72.7045 703.793 77.6164ZM715.571 121.978C713.598 121.099 711.625 120.219 709.652 119.34L709.652 108.777C717.954 112.475 715.571 115.168 715.571 121.978ZM745.964 47.4748L745.964 51.0193C740.436 51.0193 740.436 48.2703 745.964 47.4748ZM742.292 71.2253C747.116 70.2904 748.406 71.8812 746.198 75.9559C741.374 76.8908 740.085 75.3 742.292 71.2253ZM734.479 68.0018C736.549 71.0857 736.139 72.5929 733.287 72.5231C730.533 69.2577 730.943 67.7507 734.479 68.0018ZM730.006 79.1933C733.033 84.1611 731.646 86.5473 725.884 86.352C722.525 81.3144 723.892 78.9282 730.006 79.1933ZM721.216 62.8666C726.04 61.9316 727.33 63.5225 725.122 67.5972C720.298 68.5321 719.009 66.9413 721.216 62.8666ZM721.587 71.8393C721.646 71.63 722.485 71.2253 724.849 70.5555C725.943 76.1373 721.646 77.1002 716.02 80.8957C716.508 77.2118 717.68 73.9325 721.587 71.8254L721.587 71.8393ZM716.626 91.3058C721.274 90.4266 725.513 89.701 725.513 94.4177C725.689 94.4177 725.845 94.4177 725.962 94.4177C728.814 94.4455 731.666 94.4595 734.518 94.4874C734.518 75.8024 750.73 83.3378 744.167 96.4549C731.822 121.168 733.072 93.9292 720.864 94.7107C723.931 103.139 737.936 115.921 728.677 119.312C725.064 113.242 716.762 108.065 713.872 101.939C711.684 97.2922 706.097 93.3013 716.626 91.3198L716.626 91.3058ZM710.024 105.665C704.398 107.688 702.738 106.237 705.043 101.325C706.703 102.776 708.363 104.228 710.024 105.665ZM707.621 61.4851C699.925 72.844 697.737 66.746 697.737 58.6105C701.038 59.5734 704.32 60.5223 707.621 61.4851ZM702.562 80.2399C697.835 87.1613 710.727 94.1804 691.116 94.1804C690.178 88.7103 689.241 83.2261 688.303 77.756C693.05 78.5793 697.796 79.4166 702.562 80.2399ZM683.732 89.5893C688.557 88.6544 689.846 90.2452 687.639 94.3199C682.814 95.2549 681.525 93.6641 683.732 89.5893ZM650.937 604.523C655.761 604.062 658.828 605.513 660.156 608.863C651.972 611.053 648.905 609.602 650.937 604.523ZM656.172 620.138C654.589 622.566 653.027 624.994 651.445 627.436C645.194 621.84 645.253 619.426 643.573 612.616C655.84 612.616 645.585 617.389 656.172 620.138ZM632.556 636.841C634.06 640.246 634.686 643.735 634.412 647.307C632.107 648.172 629.822 649.051 627.517 649.917C627.517 643.567 625.642 641 632.556 636.841ZM618.141 624.45C622.966 623.515 624.255 625.106 622.048 629.18C617.223 630.115 615.934 628.524 618.141 624.45ZM617.536 647.181C619.216 651.145 616.989 652.345 610.895 650.754C610.348 645.772 614.235 648.982 617.536 647.181ZM606.695 659.196C600.913 659.727 599.683 657.745 598.53 654.996C603.765 653.67 605.172 655.777 606.695 659.196ZM600.308 667.639C602.495 670.192 601.343 671.337 596.851 671.085C595.483 668.448 596.636 667.304 600.308 667.639ZM573.118 693.12L580.072 693.12C580.072 699.734 573.841 699.287 573.118 693.12ZM579.798 66.2156C579.798 77.1281 575.716 76.0815 572.591 70.4718C574.544 68.1274 577.22 66.2156 579.798 66.2156ZM571.907 71.351C572.474 73.9465 572.923 76.5699 572.923 79.1794C568.528 79.4724 569.212 75.1047 571.907 71.351ZM556.457 102.679C551.632 103.614 550.343 102.023 552.55 97.9481C557.375 97.0132 558.664 98.6039 556.457 102.679ZM560.793 76.2908C563.547 79.6398 563.137 81.147 559.562 80.8121C557.492 77.7002 557.902 76.1931 560.793 76.2908ZM547.784 79.4724C556.203 82.8354 562.023 87.859 564.27 94.613C555.851 92.2826 552.804 87.8451 547.374 82.7378C547.511 81.6493 547.647 80.5469 547.784 79.4584L547.784 79.4724ZM552.159 91.5569C552.159 95.9247 545.987 95.5898 544.854 91.557L552.159 91.5569ZM519.579 674.197C518.29 670.751 520.555 669.83 526.357 671.434C526.552 675.704 523.192 674.016 519.579 674.197ZM540.772 128.69C535.283 131.313 532.744 130.657 533.134 126.694C538.682 124.964 541.221 125.634 540.772 128.69ZM531.083 79.0259C531.083 75.0907 534.931 75.0907 536.064 79.0259L531.083 79.0259ZM529.579 47.6563C531.611 47.7679 533.623 47.8795 535.654 48.0051C535.791 48.8982 535.771 49.3587 535.654 49.5541C535.459 52.345 533.838 54.7311 530.751 56.6848C528.896 53.7822 528.486 50.782 529.56 47.6563L529.579 47.6563ZM531.083 114.526C532.431 118.001 530.126 119.229 524.13 118.224L524.13 130.071C511.98 126.666 515.086 125.285 515.086 116.619L531.083 114.526ZM523.446 97.8504C517.918 97.8504 517.918 95.1014 523.446 94.306L523.446 97.8504ZM515.106 74.6023C521.434 73.6813 522.723 76.3606 518.973 82.6401C512.645 83.5611 511.355 80.8818 515.106 74.6023ZM513.289 142.505C524.892 132.96 531.923 139.532 533.134 150.877C527.607 151.896 524.208 150.445 522.899 146.496C515.418 154.673 512.723 151.115 512.723 142.965C512.938 142.784 513.113 142.63 513.289 142.505ZM503.171 190.703C499.597 192.266 497.975 191.443 498.327 188.247C502.019 187.271 503.64 188.094 503.171 190.703ZM500.026 48.0609C494.088 49.6378 494.42 55.5405 487.701 56.2103C484.908 51.9821 487.408 44.6002 486.178 39.5347C495.104 39.5347 495.26 42.7304 500.026 48.0609ZM490.416 58.3593C492.721 62.3224 491.471 65.5459 486.685 68.0437C479.165 63.6062 482.33 61.9596 490.416 58.3593ZM486.392 70.8486C486.392 75.0767 488.678 78.7886 482.486 79.6538C478.696 73.7371 480.005 70.7927 486.392 70.8486ZM470.551 92.5756C475.942 93.2455 478.13 95.4782 477.056 99.2459L470.102 99.2459L470.532 92.5756L470.551 92.5756ZM468.793 666.369C467.133 665.392 465.453 664.429 463.793 663.452C467.661 662.936 473.501 662.978 468.793 666.369ZM438.576 181.912C436.545 178.898 430.47 167.399 432.775 161.343C432.599 161.343 432.697 160.953 433.576 159.836C445.237 159.836 435.861 161.608 439.377 165.627C446.702 174.014 450.647 177.377 438.576 181.912ZM449.104 662.35C449.104 657.982 455.277 658.317 456.41 662.35L449.104 662.35ZM449.534 109.726C453.792 109.642 456.351 111.121 457.21 114.163C449.807 116.466 447.249 115.001 449.534 109.726ZM448.909 137.983C450.276 140.621 449.124 141.765 445.452 141.43C443.264 138.877 444.416 137.732 448.909 137.983ZM444.026 151.184C437.678 152.105 436.369 149.426 440.139 143.133C446.506 142.212 447.796 144.891 444.026 151.184ZM433.126 108.037C438.693 107.116 439.982 109.237 436.994 114.414C431.427 115.335 430.138 113.214 433.126 108.037ZM399.51 114.442C392.537 114.833 397.03 112.056 394.491 109.698C400.057 108.512 401.718 110.089 399.51 114.442ZM384.47 87.9707C387.693 90.4267 389.51 91.8082 391.756 93.5246C386.378 94.2502 383.949 92.3989 384.47 87.9707ZM370.25 605.82C368.199 603.56 368.59 602.597 371.403 602.932C372.692 604.927 372.301 605.89 370.25 605.82ZM366.813 586.828C372.301 584.205 374.841 584.861 374.45 588.824C368.903 590.554 366.363 589.885 366.813 586.828ZM358.16 601.104C362.945 600.183 364.234 601.76 362.027 605.82C357.242 606.741 355.952 605.165 358.16 601.104ZM333.919 597.49C326.946 597.88 331.439 595.103 328.899 592.745C334.447 591.559 336.126 593.136 333.919 597.49ZM322.805 112.544C322.551 114.805 322.297 117.052 322.043 119.312C319.25 117.443 316.437 115.573 313.644 113.703C316.691 113.312 319.758 112.935 322.805 112.544ZM318.586 120.959C324.915 125.383 318.84 127.727 313.351 128.732C312.687 125.62 313.683 122.759 318.586 120.959ZM308.351 130.378C311.496 135.374 314.445 141.012 303.8 140.802C306.847 137.286 306.808 133.853 303.722 130.49C304.991 129.695 306.652 129.834 308.351 130.364L308.351 130.378ZM286.884 151.129L286.884 158.022C277.157 158.022 281.044 153.319 286.884 151.129ZM223.266 562.255C224.926 563.232 226.606 564.194 228.266 565.171C224.399 565.687 218.559 565.646 223.266 562.255ZM210.453 573.767L205.472 573.767C205.472 569.832 209.32 569.832 210.453 573.767ZM193.771 130.043C193.771 133.979 189.923 133.979 188.79 130.043L193.771 130.043ZM184.083 136.239C192.072 144.137 176.602 139.379 192.482 147.807C187.794 150.291 184.591 153.012 178.731 153.012C175.372 151.282 171.992 149.538 168.633 147.807C176.426 145.31 175.938 140.565 184.064 136.253L184.083 136.239ZM172.285 539.383C171.836 541.644 170.195 543.36 167.383 544.519C165.312 542.802 163.242 541.086 161.152 539.383L172.285 539.383ZM167.812 547.742C169.121 551.175 166.894 552.11 161.171 550.533C159.862 547.1 162.089 546.165 167.812 547.742ZM156.639 154.003C155.272 155.189 153.925 156.389 152.557 157.576C151.834 154.826 151.893 150.64 156.639 154.003ZM131.227 173.442C140.134 172.228 143.416 179.763 134.177 181.605C132.848 178.94 131.501 176.261 130.173 173.595C130.583 173.512 130.915 173.47 131.227 173.442ZM103.881 129.708C103.588 129.764 103.256 129.82 102.846 129.876C102.67 127.657 102.494 125.452 102.319 123.234C111.187 123.234 112.046 128.299 103.881 129.708ZM93.6267 470.588C95.6582 470.588 95.6582 473.937 93.6267 473.937L93.6267 470.588ZM65.4018 172.102C67.4918 171.014 75.8713 166.785 75.9689 168.432C76.2424 172.451 72.2382 179.763 64.9134 179.763C64.7962 180.391 64.9525 180.489 65.1087 180.419C66.476 184.591 64.1126 185.959 57.9598 184.494C59.4248 183.559 69.1911 170.358 65.3823 172.102L65.4018 172.102ZM54.6588 186.698C68.8981 186.698 54.268 193.969 49.9708 196.522C41.9233 196.662 57.9988 183.642 54.6588 186.698ZM-16.0306 318.624C-18.2182 316.07 -17.0657 314.926 -12.5732 315.177C-11.2059 317.815 -12.3583 318.959 -16.0306 318.624ZM-14.507 432.827C-13.2764 431.962 -11.8114 433.427 -12.5927 433.985C-11.1472 434.027 -10.5418 434.027 -10.4051 434.013C-7.14309 434.292 -5.46328 435.772 -5.42422 438.493C-17.222 438.493 -8.45181 436.497 -14.507 432.813L-14.507 432.827ZM1.04109 238.093C-11.538 238.093 -1.61528 224.473 6.29548 223.455C4.53755 228.339 2.79915 233.223 1.04109 238.093ZM10.0068 204.825C4.77192 205.537 3.77571 203.248 6.99861 197.932C10.6513 199.383 11.8623 201.351 10.6317 203.807C11.1396 203.374 11.4716 203.276 10.0262 204.811L10.0068 204.825ZM35.5361 145.896C36.8251 149.161 37.3331 152.482 37.0596 155.873C26.883 160.38 32.7429 163.953 30.7896 172.2C17.5268 164.357 18.5424 151.352 35.5361 145.896ZM16.1206 170.804C21.8046 172.507 25.8868 175.367 28.348 179.386C20.2028 179.972 15.6126 176.916 16.1206 170.804ZM20.0466 188.038L20.0466 195.085C19.6363 195.015 19.2847 194.946 18.9918 194.876C10.7685 193.159 12.2529 188.471 20.0466 188.038ZM-16.6165 182.289C-19.8394 176.916 -17.7104 173.512 -10.2098 172.088C-10.2098 178.507 -8.43218 178.535 -16.6165 182.289ZM-15.132 170.148C-17.5345 169.479 -21.2067 160.352 -21.3436 155.999C-21.5193 155.692 -21.4997 155.175 -21.1286 154.338C-20.2886 154.492 -19.8003 154.715 -19.566 154.966C-15.5617 156.403 -11.3621 156.515 -6.98687 155.273C-13.3155 150.947 -15.1712 148.491 -7.43621 145.533C-1.51776 143.272 3.58051 149.538 12.4483 150.166C10.163 155.761 6.1391 156.585 0.377018 152.636C-0.892635 157.52 -1.32232 174.042 -15.132 170.162L-15.132 170.148ZM1.7834 242.433C0.318434 245.098 -1.96697 247.372 -4.95549 249.256C-4.56474 248.628 -4.23271 247.791 -5.44377 249.577C-5.44377 265.569 -18.4916 232.148 1.7834 242.433Z" fill="#312642"/>
</svg>
